<svg xmlns="http://www.w3.org/2000/svg" width="40" height="40" fill="none" viewBox="0 0 40 40"><rect width="40" height="40" fill="#fff"/><path fill="#D4EDFB" d="M19 36.5V3H21L27 9.5V36.5H19Z"/><path stroke="#546E7A" stroke-linecap="round" stroke-width="2" d="M4 6C4 4.89543 4.89543 4 6 4H21.4429L28 10.5571V32C28 33.1046 27.1046 34 26 34H6C4.89543 34 4 33.1046 4 32V6Z"/><mask id="path-3-inside-1" fill="#fff"><rect width="2" height="7" x="14" y="8" rx="1" transform="rotate(90 14 8)"/></mask><rect width="2" height="7" x="14" y="8" stroke="#546E7A" stroke-linecap="round" stroke-width="2" mask="url(#path-3-inside-1)" rx="1" transform="rotate(90 14 8)"/><mask id="path-4-inside-2" fill="#fff"><rect width="2" height="18" x="25" y="13" rx="1" transform="rotate(90 25 13)"/></mask><rect width="2" height="18" x="25" y="13" stroke="#546E7A" stroke-linecap="round" stroke-width="2" mask="url(#path-4-inside-2)" rx="1" transform="rotate(90 25 13)"/><mask id="path-5-inside-3" fill="#fff"><rect width="2" height="18" x="25" y="19" rx="1" transform="rotate(90 25 19)"/></mask><rect width="2" height="18" x="25" y="19" stroke="#546E7A" stroke-linecap="round" stroke-width="2" mask="url(#path-5-inside-3)" rx="1" transform="rotate(90 25 19)"/><mask id="path-6-inside-4" fill="#fff"><rect width="2" height="9" x="16" y="25" rx="1" transform="rotate(90 16 25)"/></mask><rect width="2" height="9" x="16" y="25" stroke="#546E7A" stroke-linecap="round" stroke-width="2" mask="url(#path-6-inside-4)" rx="1" transform="rotate(90 16 25)"/><path fill="#D4EDFB" d="M27.0516 26.5347L18.7683 20.3105H13.293L24.3841 28.8278L27.0516 26.5347Z"/><path fill="#D4EDFB" d="M30.5505 33.7589H12.3105V37.0175H35.8968V20.9658L30.5505 24.5865V33.7589Z"/><mask id="path-9-inside-5" fill="#fff"><rect width="26.207" height="19" x="11" y="19" rx="1"/></mask><g filter="url(#filter0_i)"><rect width="26.207" height="19" x="11" y="19" fill="#fff" rx="1"/></g><rect width="26.207" height="19" x="11" y="19" stroke="#546E7A" stroke-linecap="round" stroke-width="4" mask="url(#path-9-inside-5)" rx="1"/><g filter="url(#filter1_i)"><path fill="#fff" d="M24.3349 29.483L12.3105 20.3105H35.8968L24.3349 29.483Z"/></g><path stroke="#546E7A" stroke-linecap="round" stroke-linejoin="round" stroke-width="2" d="M24.3349 29.483L12.3105 20.3105H35.8968L24.3349 29.483Z"/><defs><filter id="filter0_i" width="26.207" height="19" x="11" y="19" color-interpolation-filters="sRGB" filterUnits="userSpaceOnUse"><feFlood flood-opacity="0" result="BackgroundImageFix"/><feBlend in="SourceGraphic" in2="BackgroundImageFix" mode="normal" result="shape"/><feColorMatrix in="SourceAlpha" result="hardAlpha" type="matrix" values="0 0 0 0 0 0 0 0 0 0 0 0 0 0 0 0 0 0 127 0"/><feOffset dx="-4" dy="-4"/><feComposite in2="hardAlpha" k2="-1" k3="1" operator="arithmetic"/><feColorMatrix type="matrix" values="0 0 0 0 0.831373 0 0 0 0 0.929412 0 0 0 0 0.984314 0 0 0 1 0"/><feBlend in2="shape" mode="normal" result="effect1_innerShadow"/></filter><filter id="filter1_i" width="25.586" height="11.172" x="11.31" y="19.311" color-interpolation-filters="sRGB" filterUnits="userSpaceOnUse"><feFlood flood-opacity="0" result="BackgroundImageFix"/><feBlend in="SourceGraphic" in2="BackgroundImageFix" mode="normal" result="shape"/><feColorMatrix in="SourceAlpha" result="hardAlpha" type="matrix" values="0 0 0 0 0 0 0 0 0 0 0 0 0 0 0 0 0 0 127 0"/><feOffset dx="-4" dy="-4"/><feComposite in2="hardAlpha" k2="-1" k3="1" operator="arithmetic"/><feColorMatrix type="matrix" values="0 0 0 0 0.831373 0 0 0 0 0.929412 0 0 0 0 0.984314 0 0 0 1 0"/><feBlend in2="shape" mode="normal" result="effect1_innerShadow"/></filter></defs></svg>