<svg xmlns="http://www.w3.org/2000/svg" width="250" height="250" fill="none" viewBox="0 0 250 250"><circle cx="125" cy="125" r="125" fill="#EFF0F5"/><rect width="41" height="18" x="62" y="85" fill="#CAD3D9" rx="3"/><rect width="41" height="18" x="107" y="85" fill="#CAD3D9" rx="3"/><rect width="41" height="18" x="152" y="85" fill="#CAD3D9" rx="3"/><rect width="131" height="18" fill="#EFF0F5" transform="translate(62 111)"/><rect width="41" height="18" x="62" y="111" fill="#EFF0F5" rx="3"/><rect width="41" height="18" x="107" y="111" fill="#EFF0F5" rx="3"/><rect width="41" height="18" x="152" y="111" fill="#EFF0F5" rx="3"/><rect width="41" height="18" x="62" y="137" fill="#CAD3D9" rx="3"/><rect width="41" height="18" x="107" y="137" fill="#CAD3D9" rx="3"/><rect width="41" height="18" x="152" y="137" fill="#CAD3D9" rx="3"/><rect width="41" height="18" x="62" y="163" fill="#CAD3D9" rx="3"/><rect width="41" height="18" x="107" y="163" fill="#CAD3D9" rx="3"/><rect width="41" height="18" x="152" y="163" fill="#CAD3D9" rx="3"/><rect width="41" height="18" x="21" y="111" fill="#fff" rx="3"/><rect width="41" height="18" x="66" y="111" fill="#fff" rx="3"/><rect width="41" height="18" x="111" y="111" fill="#fff" rx="3"/><path stroke="#969AAB" stroke-linecap="round" stroke-linejoin="round" stroke-width="2" d="M167.5 120.5H133.5"/><path stroke="#969AAB" stroke-linecap="round" stroke-linejoin="round" stroke-width="2" d="M163 116L168 120.5L163 125"/></svg>