<svg xmlns="http://www.w3.org/2000/svg" width="40" height="40" fill="none" viewBox="0 0 40 40"><mask id="path-1-inside-1" fill="#fff"><rect width="14" height="22" y="18" rx="1"/></mask><rect width="14" height="22" y="18" stroke="#546E7A" stroke-linecap="round" stroke-width="4" mask="url(#path-1-inside-1)" rx="1"/><path fill="#D4EDFB" d="M19 39V4.5L27 2.5V39H19Z"/><path fill="#D4EDFB" d="M33 39V20.0959L39 19V39H33Z"/><mask id="path-4-inside-2" fill="#fff"><rect width="14" height="22" x="26" y="18" rx="1"/></mask><rect width="14" height="22" x="26" y="18" stroke="#546E7A" stroke-linecap="round" stroke-width="4" mask="url(#path-4-inside-2)" rx="1"/><path stroke="#546E7A" stroke-linecap="round" stroke-width="2" d="M7 18.5V6.76862C7 6.29097 7.33779 5.88001 7.8064 5.78754L25.8064 2.23554C26.4245 2.11357 27 2.58662 27 3.21662V38C27 38.5523 26.5523 39 26 39H12"/><rect width="2" height="2" x="6" y="25" fill="#546E7A" rx="1"/><rect width="2" height="2" x="6" y="31" fill="#546E7A" rx="1"/><rect width="2" height="2" x="32" y="25" fill="#546E7A" rx="1"/><rect width="2" height="2" x="19" y="21" fill="#546E7A" rx="1"/><rect width="2" height="2" x="19" y="9" fill="#546E7A" rx="1"/><rect width="2" height="2" x="13" y="9" fill="#546E7A" rx="1"/><rect width="2" height="2" x="19" y="27" fill="#546E7A" rx="1"/><rect width="2" height="2" x="19" y="33" fill="#546E7A" rx="1"/><rect width="2" height="2" x="32" y="31" fill="#546E7A" rx="1"/><rect width="2" height="2" x="19" y="15" fill="#546E7A" rx="1"/><rect width="2" height="2" x="13" y="15" fill="#546E7A" rx="1"/></svg>