<svg xmlns="http://www.w3.org/2000/svg" width="40" height="40" fill="none" viewBox="0 0 40 40"><path fill="#D4EDFB" d="M26 37.5V3H28L34 9.5V37.5H26Z"/><path stroke="#546E7A" stroke-linecap="round" stroke-width="2" d="M5 5C5 3.34315 6.34315 2 8 2H26.4122L35 11.527V35C35 36.6569 33.6569 38 32 38H8C6.34315 38 5 36.6569 5 35V5Z"/><mask id="path-3-inside-1" fill="#fff"><rect width="2" height="7" x="19" y="11" rx="1" transform="rotate(90 19 11)"/></mask><rect width="2" height="7" x="19" y="11" stroke="#546E7A" stroke-linecap="round" stroke-width="2" mask="url(#path-3-inside-1)" rx="1" transform="rotate(90 19 11)"/><mask id="path-4-inside-2" fill="#fff"><rect width="2" height="18" x="30" y="16" rx="1" transform="rotate(90 30 16)"/></mask><rect width="2" height="18" x="30" y="16" stroke="#546E7A" stroke-linecap="round" stroke-width="2" mask="url(#path-4-inside-2)" rx="1" transform="rotate(90 30 16)"/><mask id="path-5-inside-3" fill="#fff"><rect width="2" height="18" x="30" y="22" rx="1" transform="rotate(90 30 22)"/></mask><rect width="2" height="18" x="30" y="22" stroke="#546E7A" stroke-linecap="round" stroke-width="2" mask="url(#path-5-inside-3)" rx="1" transform="rotate(90 30 22)"/><mask id="path-6-inside-4" fill="#fff"><rect width="2" height="9" x="21" y="28" rx="1" transform="rotate(90 21 28)"/></mask><rect width="2" height="9" x="21" y="28" stroke="#546E7A" stroke-linecap="round" stroke-width="2" mask="url(#path-6-inside-4)" rx="1" transform="rotate(90 21 28)"/></svg>